<svg id="Calque_1" width="30" height="30" data-name="Calque 1" xmlns="http://www.w3.org/2000/svg" viewBox="0 0 2000 1999.95"><path d="M1664.74,1000.69c12.56,3.76,25.19,7.33,37.68,11.32,69.64,22.27,133.89,54.79,188.14,105.4,39.43,36.78,64.25,83.13,80.94,134.28,19,58.19,26.93,118.29,28.07,179.36.82,43.55,1,87.09-4.65,130.46-12.74,97.42-45.77,185.7-111.65,259.25-42,46.86-92.57,81.5-148.79,108-54.65,25.75-111.93,43-171.15,53.31-33.5,5.81-67.54,8.48-100.9,14.91-21.2,4.08-42.16,2.65-63.18,2.69-175.31.31-350.63.65-525.94-.25-33.4-.17-66.85-5.18-100.15-9.08a1069.76,1069.76,0,0,1-152-29.32C457.57,1917.27,315,1837.77,203.34,1705.76c-44.69-52.84-78.45-112.64-106-176.22a1083.32,1083.32,0,0,1-69.79-223.83c-12.48-64-20.2-128.62-24.31-193.75C-1,1044.57-.71,977.14,2,909.75,4.22,853,10.47,796.51,19.31,740.33,36.41,631.69,68.45,528,116.36,429.39c50-103,122.42-186.37,213.2-253.67C413.62,113.4,506.9,71,606.81,43,677.75,23,750.07,11.79,823.11,3.52,851.29.33,879.24.28,907.3.24Q1170.64-.13,1434,.39c19.06,0,38.13,3.62,57.14,5.94,42.91,5.23,85.46,12.57,127.35,23.53,79.83,20.87,154.54,52.83,219.34,106,69.37,56.89,114.72,130,139.57,216.66a588.36,588.36,0,0,1,22.38,157.28c.41,43.07.45,86.13-4.88,129-7.24,58.21-20.48,114.56-47.24,167.08-26.12,51.3-65.41,89.51-112.62,120.24-49.67,32.33-103.55,54.56-160.27,70.1-3.36.92-6.68,2-10,3ZM978.63,988.17h10.25q238.7,0,477.39,0a90.11,90.11,0,0,0,16.6-1c37.32-7.05,73.6-17.61,108.64-32.78,72.76-31.52,124-83.36,149.58-160.59,16-48.28,24.73-97.88,28.79-148.5,7-87.4,5.25-174.53-8.1-261.26-8.25-53.63-22.11-105.64-44.94-154.89-24.57-53-58.23-98.46-106.44-131.68-59.63-41.08-126.92-58.52-197.25-66.74-42.33-4.94-84.81-4.26-127.31-4.13-107.7.31-215.4-.5-323.09.45-39.75.35-79.5,3.92-119.19,6.93A294.35,294.35,0,0,0,795,41.5c-71.29,17.66-138.48,46.39-202.2,82.94-88.35,50.68-160.29,119.15-211,209.6-40.3,71.94-69.88,148.5-94.22,227.25-22.1,71.51-37.8,144.55-45.46,219.12-4.69,45.71-7.63,91.65-10,137.55-1.51,28.72-.27,57.58-.77,86.36-1.83,105.13,5.3,209.51,25.76,312.69a1281.92,1281.92,0,0,0,104.29,310.5c37.89,78.23,89.73,144.83,157.69,198.28,47.15,37.08,99.41,64.57,153.27,89.94,82.2,38.73,168.61,56.43,258.38,57.23,131.59,1.17,263.2.52,394.8.77,63.07.12,125.32-5.88,186.09-24.18,92.78-27.93,161.39-84.86,203.37-174.48,32.48-69.33,47.67-143.1,54.3-218.88,7-79.84,6.84-159.73-3.43-239.41-5.73-44.49-15.19-88-32.16-129.55-18.84-46.11-47.14-84.3-88.67-111.87-32.66-21.68-67.86-37.3-105-48.77a344.21,344.21,0,0,0-104.71-15.17c-149.23.87-298.46.37-447.69.37h-9Z" transform="translate(0 -0.05)"/></svg>